<svg version="1.1" xmlns="http://www.w3.org/2000/svg" viewBox="0 0 468.0997621178627 294.7455933690071" width="468.0997621178627" height="294.7455933690071">
  <!-- svg-source:excalidraw -->
  
  <defs>
    <style class="style-fonts">
      @font-face {
        font-family: "Virgil";
        src: url("./js//dist/excalidraw-assets/Virgil.woff2");
      }
      @font-face {
        font-family: "Cascadia";
        src: url("./js//dist/excalidraw-assets/Cascadia.woff2");
      }
    </style>
  </defs>
  <rect x="0" y="0" width="468.0997621178627" height="294.7455933690071" fill="#FFF"></rect><g stroke-linecap="round" transform="translate(120.67309139706194 149.25928767584264) rotate(0 10.5 13.5)"><path d="M15.66 4.61 L21.3 12.79 L9.25 27.52 L1.99 14.3 L8.85 2.02 L12.15 2.6 L14.39 5.22" stroke="none" stroke-width="0" fill="#fa5252"></path><path d="M13.75 3.5 M13.75 3.5 C15.27 5.93, 16.84 9.05, 18.25 10.5 M13.75 3.5 C15.01 4.91, 15.55 6.97, 18.25 10.5 M18.25 10.5 C21.35 13.45, 22.57 15.28, 18.25 17.5 M18.25 10.5 C20.04 12, 22.43 14.08, 18.25 17.5 M18.25 17.5 C16.5 20.04, 15.21 21.55, 13.75 23.5 M18.25 17.5 C17.19 19.04, 15.45 21.19, 13.75 23.5 M13.75 23.5 C11.73 28.62, 12.88 28.75, 8.25 23.5 M13.75 23.5 C11.32 26.08, 9.45 28.52, 8.25 23.5 M8.25 23.5 C6.75 20.9, 4.55 19.07, 2.75 17.5 M8.25 23.5 C7.21 22.29, 5.62 20.24, 2.75 17.5 M2.75 17.5 C1.25 14.47, -1.88 13.15, 2.75 10.5 M2.75 17.5 C0.66 16.28, -0.83 15.88, 2.75 10.5 M2.75 10.5 C4.71 7.73, 5.09 6.59, 8.25 3.5 M2.75 10.5 C4.29 7.96, 6.63 6.12, 8.25 3.5 M8.25 3.5 C9.45 -1.75, 10.07 -0.44, 13.75 3.5 M8.25 3.5 C12.74 -1.13, 10.63 0.39, 13.75 3.5" stroke="#000000" stroke-width="1" fill="none"></path></g><g stroke-linecap="round" transform="translate(208.17309139706194 159.75928767584264) rotate(0 10.5 13.5)"><path d="M15.66 4.61 L21.3 12.79 L9.25 27.52 L1.99 14.3 L8.85 2.02 L12.15 2.6 L14.39 5.22" stroke="none" stroke-width="0" fill="#fa5252"></path><path d="M13.75 3.5 M13.75 3.5 C15.27 5.93, 16.84 9.05, 18.25 10.5 M13.75 3.5 C15.01 4.91, 15.55 6.97, 18.25 10.5 M18.25 10.5 C21.35 13.45, 22.57 15.28, 18.25 17.5 M18.25 10.5 C20.04 12, 22.43 14.08, 18.25 17.5 M18.25 17.5 C16.5 20.04, 15.21 21.55, 13.75 23.5 M18.25 17.5 C17.19 19.04, 15.45 21.19, 13.75 23.5 M13.75 23.5 C11.73 28.62, 12.88 28.75, 8.25 23.5 M13.75 23.5 C11.32 26.08, 9.45 28.52, 8.25 23.5 M8.25 23.5 C6.75 20.9, 4.55 19.07, 2.75 17.5 M8.25 23.5 C7.21 22.29, 5.62 20.24, 2.75 17.5 M2.75 17.5 C1.25 14.47, -1.88 13.15, 2.75 10.5 M2.75 17.5 C0.66 16.28, -0.83 15.88, 2.75 10.5 M2.75 10.5 C4.71 7.73, 5.09 6.59, 8.25 3.5 M2.75 10.5 C4.29 7.96, 6.63 6.12, 8.25 3.5 M8.25 3.5 C9.45 -1.75, 10.07 -0.44, 13.75 3.5 M8.25 3.5 C12.74 -1.13, 10.63 0.39, 13.75 3.5" stroke="#000000" stroke-width="1" fill="none"></path></g><g stroke-linecap="round" transform="translate(331.17309139706197 85.75928767584264) rotate(0 10.5 13.5)"><path d="M15.66 4.61 L21.3 12.79 L9.25 27.52 L1.99 14.3 L8.85 2.02 L12.15 2.6 L14.39 5.22" stroke="none" stroke-width="0" fill="#fa5252"></path><path d="M13.75 3.5 M13.75 3.5 C15.27 5.93, 16.84 9.05, 18.25 10.5 M13.75 3.5 C15.01 4.91, 15.55 6.97, 18.25 10.5 M18.25 10.5 C21.35 13.45, 22.57 15.28, 18.25 17.5 M18.25 10.5 C20.04 12, 22.43 14.08, 18.25 17.5 M18.25 17.5 C16.5 20.04, 15.21 21.55, 13.75 23.5 M18.25 17.5 C17.19 19.04, 15.45 21.19, 13.75 23.5 M13.75 23.5 C11.73 28.62, 12.88 28.75, 8.25 23.5 M13.75 23.5 C11.32 26.08, 9.45 28.52, 8.25 23.5 M8.25 23.5 C6.75 20.9, 4.55 19.07, 2.75 17.5 M8.25 23.5 C7.21 22.29, 5.62 20.24, 2.75 17.5 M2.75 17.5 C1.25 14.47, -1.88 13.15, 2.75 10.5 M2.75 17.5 C0.66 16.28, -0.83 15.88, 2.75 10.5 M2.75 10.5 C4.71 7.73, 5.09 6.59, 8.25 3.5 M2.75 10.5 C4.29 7.96, 6.63 6.12, 8.25 3.5 M8.25 3.5 C9.45 -1.75, 10.07 -0.44, 13.75 3.5 M8.25 3.5 C12.74 -1.13, 10.63 0.39, 13.75 3.5" stroke="#000000" stroke-width="1" fill="none"></path></g><g stroke-linecap="round" transform="translate(167.17309139706194 101.75928767584264) rotate(0 10.5 13.5)"><path d="M15.66 4.61 L21.3 12.79 L9.25 27.52 L1.99 14.3 L8.85 2.02 L12.15 2.6 L14.39 5.22" stroke="none" stroke-width="0" fill="#fa5252"></path><path d="M13.75 3.5 M13.75 3.5 C15.27 5.93, 16.84 9.05, 18.25 10.5 M13.75 3.5 C15.01 4.91, 15.55 6.97, 18.25 10.5 M18.25 10.5 C21.35 13.45, 22.57 15.28, 18.25 17.5 M18.25 10.5 C20.04 12, 22.43 14.08, 18.25 17.5 M18.25 17.5 C16.5 20.04, 15.21 21.55, 13.75 23.5 M18.25 17.5 C17.19 19.04, 15.45 21.19, 13.75 23.5 M13.75 23.5 C11.73 28.62, 12.88 28.75, 8.25 23.5 M13.75 23.5 C11.32 26.08, 9.45 28.52, 8.25 23.5 M8.25 23.5 C6.75 20.9, 4.55 19.07, 2.75 17.5 M8.25 23.5 C7.21 22.29, 5.62 20.24, 2.75 17.5 M2.75 17.5 C1.25 14.47, -1.88 13.15, 2.75 10.5 M2.75 17.5 C0.66 16.28, -0.83 15.88, 2.75 10.5 M2.75 10.5 C4.71 7.73, 5.09 6.59, 8.25 3.5 M2.75 10.5 C4.29 7.96, 6.63 6.12, 8.25 3.5 M8.25 3.5 C9.45 -1.75, 10.07 -0.44, 13.75 3.5 M8.25 3.5 C12.74 -1.13, 10.63 0.39, 13.75 3.5" stroke="#000000" stroke-width="1" fill="none"></path></g><g stroke-linecap="round" transform="translate(240.17309139706194 93.75928767584264) rotate(0 10.5 13.5)"><path d="M15.66 4.61 L21.3 12.79 L9.25 27.52 L1.99 14.3 L8.85 2.02 L12.15 2.6 L14.39 5.22" stroke="none" stroke-width="0" fill="#fa5252"></path><path d="M13.75 3.5 M13.75 3.5 C15.27 5.93, 16.84 9.05, 18.25 10.5 M13.75 3.5 C15.01 4.91, 15.55 6.97, 18.25 10.5 M18.25 10.5 C21.35 13.45, 22.57 15.28, 18.25 17.5 M18.25 10.5 C20.04 12, 22.43 14.08, 18.25 17.5 M18.25 17.5 C16.5 20.04, 15.21 21.55, 13.75 23.5 M18.25 17.5 C17.19 19.04, 15.45 21.19, 13.75 23.5 M13.75 23.5 C11.73 28.62, 12.88 28.75, 8.25 23.5 M13.75 23.5 C11.32 26.08, 9.45 28.52, 8.25 23.5 M8.25 23.5 C6.75 20.9, 4.55 19.07, 2.75 17.5 M8.25 23.5 C7.21 22.29, 5.62 20.24, 2.75 17.5 M2.75 17.5 C1.25 14.47, -1.88 13.15, 2.75 10.5 M2.75 17.5 C0.66 16.28, -0.83 15.88, 2.75 10.5 M2.75 10.5 C4.71 7.73, 5.09 6.59, 8.25 3.5 M2.75 10.5 C4.29 7.96, 6.63 6.12, 8.25 3.5 M8.25 3.5 C9.45 -1.75, 10.07 -0.44, 13.75 3.5 M8.25 3.5 C12.74 -1.13, 10.63 0.39, 13.75 3.5" stroke="#000000" stroke-width="1" fill="none"></path></g><g stroke-linecap="round" transform="translate(55.17309139706194 189.75928767584264) rotate(0 10.5 13.5)"><path d="M15.66 4.61 L21.3 12.79 L9.25 27.52 L1.99 14.3 L8.85 2.02 L12.15 2.6 L14.39 5.22" stroke="none" stroke-width="0" fill="#fa5252"></path><path d="M13.75 3.5 M13.75 3.5 C15.27 5.93, 16.84 9.05, 18.25 10.5 M13.75 3.5 C15.01 4.91, 15.55 6.97, 18.25 10.5 M18.25 10.5 C21.35 13.45, 22.57 15.28, 18.25 17.5 M18.25 10.5 C20.04 12, 22.43 14.08, 18.25 17.5 M18.25 17.5 C16.5 20.04, 15.21 21.55, 13.75 23.5 M18.25 17.5 C17.19 19.04, 15.45 21.19, 13.75 23.5 M13.75 23.5 C11.73 28.62, 12.88 28.75, 8.25 23.5 M13.75 23.5 C11.32 26.08, 9.45 28.52, 8.25 23.5 M8.25 23.5 C6.75 20.9, 4.55 19.07, 2.75 17.5 M8.25 23.5 C7.21 22.29, 5.62 20.24, 2.75 17.5 M2.75 17.5 C1.25 14.47, -1.88 13.15, 2.75 10.5 M2.75 17.5 C0.66 16.28, -0.83 15.88, 2.75 10.5 M2.75 10.5 C4.71 7.73, 5.09 6.59, 8.25 3.5 M2.75 10.5 C4.29 7.96, 6.63 6.12, 8.25 3.5 M8.25 3.5 C9.45 -1.75, 10.07 -0.44, 13.75 3.5 M8.25 3.5 C12.74 -1.13, 10.63 0.39, 13.75 3.5" stroke="#000000" stroke-width="1" fill="none"></path></g><g stroke-linecap="round"><g transform="translate(10.673091397061938 217.25928767584264) rotate(0 210.40246722362937 -83.45473362116142)"><path d="M-0.67 0.41 C69.51 -27.43, 351 -138, 421.48 -165.81 M1.17 -0.43 C71.21 -28.06, 350.64 -139.3, 420.78 -167.31" stroke="#087f5b" stroke-width="1" fill="none"></path></g></g><mask></mask><g stroke-linecap="round"><g transform="translate(40.67309139706194 285.25928767584264) rotate(0 -0.7668826860375475 -137.8864909913391)"><path d="M-0.22 -0.51 C0 -46.31, 0.24 -229.7, 0.26 -275.26 M-1.8 -1.83 C-1.62 -47.41, -0.7 -228.23, -0.55 -273.86" stroke="#000000" stroke-width="1" fill="none"></path></g><g transform="translate(40.67309139706194 285.25928767584264) rotate(0 -0.7668826860375475 -137.8864909913391)"><path d="M8.73 -245.19 C7.12 -251.74, 7.3 -257.58, -1.22 -274.92 M8.97 -245.88 C6.28 -252.68, 4.44 -259.6, -0.56 -272.98" stroke="#000000" stroke-width="1" fill="none"></path></g><g transform="translate(40.67309139706194 285.25928767584264) rotate(0 -0.7668826860375475 -137.8864909913391)"><path d="M-11.79 -245.27 C-9.06 -251.77, -4.53 -257.59, -1.22 -274.92 M-11.55 -245.97 C-9.44 -252.77, -6.48 -259.67, -0.56 -272.98" stroke="#000000" stroke-width="1" fill="none"></path></g></g><mask></mask><g stroke-linecap="round"><g transform="translate(11.673091397061938 261.25928767584264) rotate(0 222.82161312220617 0.06527976720212791)"><path d="M0.44 -0.97 C74.71 -1.09, 371.81 -0.83, 446.43 -0.78 M-0.78 1.13 C73.21 1.16, 370.39 0.48, 445.18 0.35" stroke="#000000" stroke-width="1" fill="none"></path></g><g transform="translate(11.673091397061938 261.25928767584264) rotate(0 222.82161312220617 0.06527976720212791)"><path d="M415.39 9.71 C426.06 8.65, 436.64 4.4, 446.48 2 M417.05 10.65 C427.86 6.58, 438.78 2.03, 444.26 0.11" stroke="#000000" stroke-width="1" fill="none"></path></g><g transform="translate(11.673091397061938 261.25928767584264) rotate(0 222.82161312220617 0.06527976720212791)"><path d="M415.35 -10.81 C426.02 -4.34, 436.62 -1.05, 446.48 2 M417.01 -9.87 C427.99 -5.91, 438.93 -2.43, 444.26 0.11" stroke="#000000" stroke-width="1" fill="none"></path></g></g><mask></mask></svg>